<svg width="54" height="52" viewBox="0 0 54 52" fill="none" xmlns="http://www.w3.org/2000/svg">
<path d="M6.88458 39.7355C7.16366 38.9518 7.41184 38.2545 7.66002 37.5572C8.10206 36.3162 8.53984 35.0741 8.9904 33.8373C9.06602 33.6305 9.03726 33.526 8.84341 33.4066C4.35697 30.6473 1.51939 26.6863 0.471281 21.5313C-0.622634 16.1449 0.560754 11.2116 3.94901 6.89569C7.26271 2.6757 11.6778 0.394045 17.0313 0.0379363C23.9963 -0.425857 30.7047 3.39751 33.9363 9.61128C35.7503 13.0988 36.3841 16.7931 35.8089 20.6837C35.4744 22.9472 34.7118 25.0668 33.5657 27.0499C33.4517 27.2472 33.3388 27.3143 33.1109 27.2653C30.5758 26.7109 28.7043 25.2982 27.5561 22.9589C27.49 22.8246 27.4868 22.605 27.5497 22.4685C30.4661 16.1332 26.705 8.88947 19.839 7.63243C14.9169 6.73149 9.82654 9.70723 8.18407 14.4443C6.13471 20.3574 9.44735 26.5765 15.4868 28.1705C15.6263 28.2078 15.7925 28.3304 15.8521 28.4573C17.1431 31.1889 18.9411 33.527 21.2514 35.4718C21.2929 35.507 21.3313 35.5464 21.4399 35.6498C20.8701 35.7319 20.3716 35.8204 19.8688 35.8737C18.3723 36.0315 16.8789 35.9953 15.3899 35.7724C15.3046 35.7596 15.1427 35.8375 15.1172 35.91C14.3769 37.9645 13.6494 40.0233 12.9208 42.0822C12.9144 42.1003 12.9261 42.1237 12.9379 42.1994C13.4214 41.9702 13.8922 41.7484 14.362 41.5235C15.0437 41.1972 15.7552 41.0885 16.4966 41.2537C17.9143 41.5704 18.8793 42.6824 19.0433 44.1783C19.1818 45.4375 18.4149 46.7521 17.1676 47.3524C15.4847 48.1616 13.7932 48.9559 12.106 49.7566C11.028 50.2684 9.9533 50.7855 8.87323 51.2909C7.12424 52.1097 5.2794 51.4465 4.44644 49.6958C3.08091 46.8288 1.71751 43.9608 0.3637 41.0895C-0.610917 39.0222 0.449978 36.829 2.63035 36.377C3.98097 36.0966 5.43917 36.8056 6.08359 38.069C6.34881 38.5872 6.5906 39.1203 6.88458 39.7355Z" fill="white"/>
<path d="M42.5577 46.2583C41.8749 46.5526 41.2209 46.8458 40.5584 47.1187C39.8319 47.4194 39.1193 47.7893 38.3641 47.9749C36.792 48.3608 35.174 47.397 34.668 45.8723C34.1472 44.304 34.8459 42.6066 36.3297 41.9178C37.4619 41.3922 38.6166 40.9113 39.7606 40.4113C39.8213 40.3846 39.8799 40.3527 39.9661 40.3111C39.932 40.2119 39.9075 40.1181 39.8692 40.0296C39.5124 39.2022 39.1406 38.3813 38.803 37.5464C38.6816 37.2458 38.5569 37.1551 38.2129 37.2255C33.3174 38.2192 28.7543 37.3513 24.6055 34.5824C20.4961 31.8402 17.944 27.988 16.9705 23.1433C16.0267 18.4445 16.9108 14.0572 19.4257 9.98644C19.5886 9.72309 19.7388 9.66231 20.02 9.76467C22.3261 10.6006 24.1347 12.0495 25.4449 14.1265C25.5642 14.3152 25.4843 14.4357 25.4012 14.5839C24.4777 16.2098 24.0527 17.968 24.0751 19.8274C24.1368 25.0219 28.1216 29.4551 33.2588 30.066C39.114 30.7623 44.2853 26.7001 44.9947 20.8328C45.587 15.939 42.4362 10.5238 36.8793 9.40749C36.743 9.37977 36.5672 9.2529 36.5172 9.12922C35.3604 6.27609 33.5997 3.91021 31.0028 2.20963C30.9666 2.18617 30.9379 2.15206 30.8377 2.06143C31.4097 1.96227 31.9167 1.83646 32.4301 1.78955C39.2312 1.17542 44.7838 3.52105 48.9731 8.92664C51.0192 11.5676 52.2005 14.6094 52.4444 17.9488C52.9451 24.8182 50.3759 30.2995 44.8318 34.3777C44.6155 34.5366 44.5793 34.656 44.6869 34.897C45.1076 35.8288 45.5071 36.7713 45.9278 37.7394C46.5392 37.4761 47.1261 37.2234 47.7119 36.9707C48.3116 36.7127 48.907 36.4451 49.5099 36.1977C51.1897 35.51 53.0143 36.2489 53.7365 37.9025C54.4341 39.5008 53.7248 41.3581 52.1015 42.1065C51.0086 42.6098 49.8944 43.0704 48.7909 43.5502C48.7004 43.5896 48.6131 43.6387 48.5002 43.6952C48.8815 44.5769 49.249 45.4469 49.6335 46.3084C49.9456 47.0078 50.165 47.7126 50.034 48.4973C49.7965 49.9249 48.7121 51.0029 47.2699 51.2118C45.9012 51.4101 44.5186 50.6606 43.9253 49.3716C43.5206 48.492 43.1499 47.5974 42.7622 46.7093C42.7014 46.5696 42.6354 46.4289 42.5577 46.2583Z" fill="white"/>
</svg>
