<svg width="188" height="48" viewBox="0 0 188 48" fill="none" xmlns="http://www.w3.org/2000/svg">
<path d="M12.8589 47.4573C15.8264 47.4573 18.629 46.9045 21.2667 45.7989C23.9044 44.6934 26.2021 43.1858 28.1598 41.2762C30.1175 39.3666 31.6631 37.1253 32.7964 34.5524C33.9298 31.9795 34.4965 29.2457 34.4965 26.3512C34.4965 23.4566 33.9298 20.733 32.7964 18.1801C31.6631 15.6273 30.1175 13.3961 28.1598 11.4865C26.2021 9.57688 23.9044 8.06931 21.2667 6.96375C18.629 5.85819 15.8264 5.30541 12.8589 5.30541H0V47.4573H12.8589ZM76.4811 0.0611978C78.3299 0.953459 81.6515 3.181 81.6515 7.68598C81.6515 10.1195 80.9714 11.89 80.1425 13.1411C81.3515 14.6364 82.3539 16.2864 83.1503 18.0897C84.3043 20.7028 84.8813 23.4968 84.8813 26.4718C84.8813 29.4467 84.3043 32.2408 83.1503 34.8539C81.9963 37.4671 80.4095 39.7485 78.39 41.6983C76.3705 43.6481 74.0213 45.1859 71.3423 46.3115C68.6634 47.4372 65.799 48 62.7491 48C59.6992 48 56.8348 47.4372 54.1559 46.3115C51.4769 45.1859 49.138 43.6481 47.1391 41.6983C45.1402 39.7485 43.5637 37.4671 42.4097 34.8539C41.2557 32.2408 40.6787 29.4467 40.6787 26.4718C40.6787 23.4968 41.2557 20.7028 42.4097 18.0897C43.3275 16.0115 44.5124 14.1368 45.9645 12.4655C45.3289 11.2773 44.8579 9.71123 44.8579 7.68598C44.8579 3.181 48.1795 0.953459 50.0283 0.0611978C50.2474 -0.0414899 50.5071 -0.0133741 50.698 0.133698C50.8889 0.28077 50.9778 0.521232 50.9272 0.753792C50.5813 2.46161 50.2922 5.59979 52.2887 7.45433C52.8917 7.13542 53.514 6.84149 54.1559 6.57178C56.8348 5.44612 59.6992 4.88329 62.7491 4.88329C65.799 4.88329 68.6634 5.44612 71.3423 6.57178C72.2016 6.93282 73.0269 7.33728 73.8182 7.78516C76.2532 5.99858 75.9498 2.5686 75.5822 0.753792C75.5316 0.521232 75.6205 0.28077 75.8114 0.133698C76.0023 -0.0133741 76.262 -0.0414899 76.4811 0.0611978ZM62.7491 12.9639C60.8532 12.9639 59.0707 13.3157 57.4015 14.0192C55.7323 14.7227 54.2692 15.6876 53.0122 16.9138C51.7551 18.1399 50.766 19.5771 50.0447 21.2254C49.3235 22.8737 48.9628 24.6225 48.9628 26.4718C48.9628 28.3211 49.3235 30.0598 50.0447 31.688C50.766 33.3162 51.7551 34.7434 53.0122 35.9695C54.2692 37.1957 55.7323 38.1606 57.4015 38.8641C59.0707 39.5676 60.8532 39.9194 62.7491 39.9194C64.645 39.9194 66.4378 39.5676 68.1276 38.8641C69.8174 38.1606 71.2908 37.1957 72.5479 35.9695C73.8049 34.7434 74.794 33.3162 75.5153 31.688C76.2365 30.0598 76.5972 28.3211 76.5972 26.4718C76.5972 24.6225 76.2365 22.8737 75.5153 21.2254C74.794 19.5771 73.8049 18.1399 72.5479 16.9138C71.2908 15.6876 69.8174 14.7227 68.1276 14.0192C66.4378 13.3157 64.645 12.9639 62.7491 12.9639ZM12.8589 13.3257C14.7136 13.3257 16.4446 13.6674 18.052 14.3509C19.6593 15.0343 21.0709 15.969 22.2868 17.155C23.5026 18.3409 24.4608 19.7179 25.1615 21.2857C25.8621 22.8536 26.2124 24.5421 26.2124 26.3512C26.2124 28.1603 25.8621 29.8588 25.1615 31.4468C24.4608 33.0348 23.5026 34.4117 22.2868 35.5776C21.0709 36.7434 19.6593 37.6681 18.052 38.3515C16.4446 39.0349 14.7136 39.3767 12.8589 39.3767H8.28412V13.3257H12.8589ZM108.497 47.4573L114.494 32.5624L120.491 47.4573H125.931L143.117 4.82299H134.215L123.211 32.2006L118.945 21.5873L125.745 4.82299H116.781L114.494 10.5518L112.207 4.82299H103.366L110.043 21.5269L105.777 32.2006L94.7728 4.82299H85.8704L103.057 47.4573H108.497ZM157.584 47.4573V19.8385L182.251 47.4573H188V5.18481H179.778V32.5624L155.111 4.9436H149.3V47.4573H157.584Z" fill="white"/>
</svg>
