<svg width="141" height="36" viewBox="0 0 141 36" fill="none" xmlns="http://www.w3.org/2000/svg">
<path d="M9.6442 35.593C11.8698 35.593 13.9717 35.1784 15.95 34.3492C17.9283 33.52 19.6516 32.3894 21.1199 30.9572C22.5881 29.525 23.7473 27.844 24.5973 25.9143C25.4474 23.9846 25.8724 21.9343 25.8724 19.7634C25.8724 17.5925 25.4474 15.5497 24.5973 13.6351C23.7473 11.7205 22.5881 10.0471 21.1199 8.61486C19.6516 7.18266 17.9283 6.05198 15.95 5.22281C13.9717 4.39364 11.8698 3.97906 9.6442 3.97906H0V35.593H9.6442ZM57.3608 0.0458983C58.7474 0.715094 61.2386 2.38575 61.2386 5.76449C61.2386 7.58964 60.7285 8.91753 60.1069 9.8558C61.0136 10.9773 61.7655 12.2148 62.3627 13.5673C63.2282 15.5271 63.661 17.6226 63.661 19.8538C63.661 22.0851 63.2282 24.1806 62.3627 26.1404C61.4972 28.1003 60.3071 29.8114 58.7925 31.2738C57.2779 32.7361 55.5159 33.8894 53.5067 34.7336C51.4975 35.5779 49.3492 36 47.0618 36C44.7744 36 42.6261 35.5779 40.6169 34.7336C38.6077 33.8894 36.8535 32.7361 35.3543 31.2738C33.8551 29.8114 32.6728 28.1003 31.8073 26.1404C30.9418 24.1806 30.509 22.0851 30.509 19.8538C30.509 17.6226 30.9418 15.5271 31.8073 13.5673C32.4956 12.0086 33.3843 10.6026 34.4734 9.34909C33.9967 8.45796 33.6434 7.28342 33.6434 5.76449C33.6434 2.38575 36.1346 0.715094 37.5212 0.0458983C37.6856 -0.0311174 37.8803 -0.0100306 38.0235 0.100273C38.1667 0.210577 38.2333 0.390924 38.1954 0.565344C37.936 1.84621 37.7191 4.19984 39.2165 5.59075C39.6687 5.35157 40.1355 5.13111 40.6169 4.92883C42.6261 4.08459 44.7744 3.66247 47.0618 3.66247C49.3492 3.66247 51.4975 4.08459 53.5067 4.92883C54.1512 5.19961 54.7701 5.50296 55.3637 5.83887C57.1899 4.49894 56.9623 1.92645 56.6866 0.565344C56.6487 0.390924 56.7154 0.210577 56.8585 0.100273C57.0017 -0.0100306 57.1965 -0.0311174 57.3608 0.0458983ZM47.0618 9.72293C45.6399 9.72293 44.303 9.98675 43.0511 10.5144C41.7992 11.0421 40.7019 11.7657 39.7591 12.6853C38.8163 13.6049 38.0745 14.6829 37.5335 15.9191C36.9926 17.1553 36.7221 18.4669 36.7221 19.8538C36.7221 21.2408 36.9926 22.5449 37.5335 23.766C38.0745 24.9872 38.8163 26.0575 39.7591 26.9771C40.7019 27.8968 41.7992 28.6204 43.0511 29.1481C44.303 29.6757 45.6399 29.9395 47.0618 29.9395C48.4837 29.9395 49.8283 29.6757 51.0957 29.1481C52.363 28.6204 53.4681 27.8968 54.4109 26.9771C55.3537 26.0575 56.0955 24.9872 56.6365 23.766C57.1774 22.5449 57.4479 21.2408 57.4479 19.8538C57.4479 18.4669 57.1774 17.1553 56.6365 15.9191C56.0955 14.6829 55.3537 13.6049 54.4109 12.6853C53.4681 11.7657 52.363 11.0421 51.0957 10.5144C49.8283 9.98675 48.4837 9.72293 47.0618 9.72293ZM9.6442 9.9943C11.0352 9.9943 12.3334 10.2506 13.539 10.7632C14.7445 11.2757 15.8032 11.9768 16.7151 12.8662C17.6269 13.7557 18.3456 14.7884 18.8711 15.9643C19.3966 17.1402 19.6593 18.4066 19.6593 19.7634C19.6593 21.1202 19.3966 22.3941 18.8711 23.5851C18.3456 24.7761 17.6269 25.8088 16.7151 26.6832C15.8032 27.5576 14.7445 28.2511 13.539 28.7636C12.3334 29.2762 11.0352 29.5325 9.6442 29.5325H6.21309V9.9943H9.6442ZM81.3729 35.593L85.8704 24.4218L90.368 35.593H94.4482L107.338 3.61724H100.661L92.4081 24.1504L89.2088 16.1904L94.3091 3.61724H87.586L85.8704 7.91384L84.1549 3.61724H77.5245L82.5321 16.1452L79.3328 24.1504L71.0796 3.61724H64.4028L77.2927 35.593H81.3729ZM118.188 35.593V14.8788L136.688 35.593H141V3.88861H134.833V24.4218L116.333 3.7077H111.975V35.593H118.188Z" fill="white"/>
</svg>
