<svg width="54" height="47" viewBox="0 0 54 47" fill="none" xmlns="http://www.w3.org/2000/svg">
<path d="M49.7162 4.55063C46.9208 1.61617 43.0852 0 38.9151 0C35.798 0 32.9433 0.95383 30.4302 2.83477C29.1621 3.78422 28.0131 4.9458 27 6.30158C25.9873 4.9462 24.8379 3.78422 23.5694 2.83477C21.0567 0.95383 18.202 0 15.0849 0C10.9148 0 7.07877 1.61617 4.28343 4.55063C1.52147 7.4508 0 11.4129 0 15.7075C0 20.1277 1.70192 24.1739 5.35583 28.4414C8.62454 32.2587 13.3224 36.1339 18.7627 40.6211C20.6204 42.1535 22.726 43.8905 24.9125 45.7408C25.4901 46.2304 26.2312 46.5 27 46.5C27.7684 46.5 28.5099 46.2304 29.0867 45.7416C31.2731 43.8909 33.38 42.1531 35.2385 40.6199C40.678 36.1335 45.3759 32.2587 48.6446 28.441C52.2985 24.1739 54 20.1277 54 15.7071C54 11.4129 52.4785 7.4508 49.7162 4.55063Z" fill="white"/>
</svg>
