<svg width="409" height="39" viewBox="0 0 409 39" fill="none" xmlns="http://www.w3.org/2000/svg">
<path fill-rule="evenodd" clip-rule="evenodd" d="M132.673 37.52V28.056H142.921C151.825 28.056 157.425 22.904 157.425 14C157.425 5.096 151.825 0 142.921 0L122.145 0V37.52H132.673ZM141.745 9.464C145.441 9.464 146.953 10.192 146.953 14C146.953 17.864 145.441 18.592 141.745 18.592H132.673V9.464L141.745 9.464ZM170.188 37.52V20.664C170.188 18.424 171.028 17.584 173.884 17.584C176.628 17.584 177.524 18.424 177.524 20.776V24.08H188.052V18.48C188.052 12.824 185.588 8.736 179.372 8.736C173.772 8.736 170.86 12.04 170.076 16.688H169.516V9.296L159.66 9.296V37.52H170.188ZM206.021 38.08C215.541 38.08 221.533 33.656 221.533 27.384V26.712L211.005 26.712V27.328C211.005 29.008 209.885 29.736 205.629 29.736C201.149 29.736 199.637 28.784 199.469 25.368L221.589 25.368C221.701 24.36 221.757 23.632 221.757 22.68C221.757 13.608 215.541 8.736 205.797 8.736C196.389 8.736 189.725 14.224 189.725 23.408C189.725 33.992 196.445 38.08 206.021 38.08ZM205.573 16.8C209.493 16.8 211.173 17.64 211.565 20.048H199.637C200.085 17.64 201.709 16.8 205.573 16.8ZM239.751 38.08C249.103 38.08 254.367 34.272 254.367 29.008C254.367 24.248 251.735 21.504 243.503 20.608L237.903 19.992C234.599 19.656 234.151 19.264 234.151 18.48C234.151 17.416 234.599 16.968 238.015 16.968C242.271 16.968 242.831 17.64 242.831 19.096V19.432L253.359 19.432V19.208C253.359 12.264 248.151 8.736 238.351 8.736C227.767 8.736 223.791 13.048 223.791 18.032C223.791 22.792 226.927 25.536 232.751 26.152L240.927 27.048C243.559 27.328 244.007 27.552 244.007 28.448C244.007 29.4 243.447 29.792 239.807 29.792C235.999 29.792 234.991 29.624 234.991 28.056V27.496H224.463V27.72C224.463 34.216 229.783 38.08 239.751 38.08ZM272.071 38.08C281.423 38.08 286.687 34.272 286.687 29.008C286.687 24.248 284.055 21.504 275.823 20.608L270.223 19.992C266.919 19.656 266.471 19.264 266.471 18.48C266.471 17.416 266.919 16.968 270.335 16.968C274.591 16.968 275.151 17.64 275.151 19.096V19.432L285.679 19.432V19.208C285.679 12.264 280.471 8.736 270.671 8.736C260.087 8.736 256.111 13.048 256.111 18.032C256.111 22.792 259.247 25.536 265.071 26.152L273.247 27.048C275.879 27.328 276.327 27.552 276.327 28.448C276.327 29.4 275.767 29.792 272.127 29.792C268.319 29.792 267.311 29.624 267.311 28.056V27.496H256.783V27.72C256.783 34.216 262.103 38.08 272.071 38.08ZM0 23.52C0 23.335 0.148326 23.1842 0.333287 23.1811L98.0003 21.5533C99.0993 21.535 100 22.4209 100 23.52C100 24.6191 99.0993 25.505 98.0003 25.4867L0.333291 23.8589C0.14833 23.8558 0 23.705 0 23.52ZM407.682 26.9062C407.867 26.9057 408.018 26.7569 408.02 26.572C408.023 26.387 407.877 26.2341 407.692 26.2284L310.057 23.2311C308.959 23.1973 308.045 24.0705 308.03 25.1695C308.015 26.2685 308.903 27.1669 310.002 27.164L407.682 26.9062Z" fill="url(#paint0_linear_2_1991)"/>
<defs>
<linearGradient id="paint0_linear_2_1991" x1="0" y1="38.08" x2="408.02" y2="38.08" gradientUnits="userSpaceOnUse">
<stop stop-color="#A734BD"/>
<stop offset="1" stop-color="#FF006A"/>
</linearGradient>
</defs>
</svg>
