<svg width="169" height="173" viewBox="0 0 169 173" fill="none" xmlns="http://www.w3.org/2000/svg">
<path d="M87.1798 31.9875C104.378 16.994 128.916 1.84765 155.794 5.57544C157.572 5.75345 159.252 6.46744 160.61 7.62427L160.888 7.87036L161.089 8.05688L161.269 8.26392C162.482 9.66553 163.23 11.4059 163.42 13.2463C167.073 40.6206 152.342 65.6798 137.659 83.3167C130.227 92.2442 122.595 99.5262 116.83 104.573C113.943 107.101 111.513 109.078 109.794 110.431C109.647 110.547 109.502 110.656 109.365 110.763C111.166 127.89 110.593 138.538 102.801 146.314C98.9604 150.146 93.6867 152.936 87.3878 155.751C84.1891 157.181 80.5668 158.682 76.5616 160.344C72.5361 162.014 68.0781 163.866 63.1163 166.03C58.3994 168.086 52.9004 168.317 49.4767 164.038C46.5542 160.386 46.9513 155.425 48.2892 151.724L54.0939 135.627L36.1329 117.264L20.5812 123.137L20.5802 123.136C16.9057 124.527 11.9274 124.945 8.28528 121.892C4.15806 118.432 4.3889 112.969 6.36829 108.229C10.4505 98.4232 13.7566 89.6107 16.4113 83.3918C19.1579 76.9575 21.8757 71.581 25.6134 67.6604C33.2434 59.657 43.7335 59.055 60.4073 60.8762C60.4984 60.7542 60.5919 60.6273 60.6896 60.4973C62.0103 58.7395 63.9406 56.2533 66.4093 53.3C71.339 47.4029 78.4547 39.5944 87.1798 31.9875ZM122.211 39.0686C121.13 39.0686 120.061 39.2852 119.066 39.7063C118.07 40.1274 117.17 40.7442 116.417 41.5198C114.83 43.1622 113.943 45.3568 113.943 47.6409C113.943 49.9249 114.83 52.1195 116.417 53.762C117.17 54.5375 118.07 55.1544 119.066 55.5754C120.061 55.9965 121.13 56.2131 122.211 56.2131C123.292 56.2131 124.361 55.9965 125.357 55.5754C126.352 55.1544 127.252 54.5376 128.005 53.762C129.592 52.1195 130.48 49.9249 130.48 47.6409C130.48 45.3568 129.592 43.1622 128.005 41.5198L127.716 41.2366C127.026 40.5931 126.227 40.0748 125.357 39.7063C124.361 39.2852 123.292 39.0686 122.211 39.0686Z" fill="url(#paint0_linear_2_1973)" stroke="black" stroke-width="10"/>
<defs>
<linearGradient id="paint0_linear_2_1973" x1="9.98352" y1="162.466" x2="158.984" y2="162.466" gradientUnits="userSpaceOnUse">
<stop stop-color="#A734BD"/>
<stop offset="1" stop-color="#FF006A"/>
</linearGradient>
</defs>
</svg>
