<svg width="167" height="146" viewBox="0 0 167 146" fill="none" xmlns="http://www.w3.org/2000/svg">
<path d="M115.027 5.00195C121.317 4.96833 127.448 6.97772 132.497 10.7305C137.547 14.4838 141.241 19.7763 143.024 25.8105L161.48 87.3535L161.487 87.375L161.493 87.3965C161.811 88.4906 162 89.6667 162 90.9014V98.2529C161.989 109.328 157.587 119.947 149.76 127.779C141.932 135.612 131.319 140.017 120.248 140.028H120.234C112.121 140.014 104.186 137.637 97.4014 133.186C91.5582 129.352 86.7868 124.124 83.5 117.995C80.2132 124.124 75.4418 129.352 69.5986 133.186C62.8137 137.637 54.8793 140.014 46.7656 140.028H46.752C35.6825 140.017 25.0703 135.613 17.2432 127.782C9.41612 119.952 5.01331 109.335 5 98.2617V90.8828C5.0043 89.6955 5.17683 88.5148 5.5127 87.376L5.5166 87.3652L5.51953 87.3535L23.9756 25.8105C25.7548 19.7837 29.4399 14.496 34.4795 10.7432C39.5195 6.99004 45.6411 4.97653 51.9238 5.00195V5C59.2224 4.99911 66.2567 7.73047 71.6445 12.6553C75.8884 16.5345 78.8682 21.5545 80.2637 27.0645H86.7393C88.1283 21.5617 91.0987 16.5469 95.332 12.6689C100.71 7.74284 107.735 5.00651 115.027 5V5.00195ZM46.7578 81.1914C42.4716 81.2064 38.3482 82.8401 35.2129 85.7666C32.0758 88.6948 30.1597 92.7016 29.8486 96.9844L29.8477 96.9834C29.8297 97.2416 29.8047 97.4714 29.7822 97.6514C29.7625 97.809 29.7334 98.022 29.7236 98.0957C29.7089 98.2064 29.7025 98.2642 29.7002 98.2871C29.7182 102.8 31.5184 107.123 34.708 110.313C37.905 113.511 42.237 115.31 46.7559 115.318C51.2644 115.309 55.5869 113.517 58.7803 110.33C61.9704 107.147 63.7747 102.83 63.7998 98.3213V98.2559C63.7998 93.7293 62.0025 89.3883 58.8047 86.1885C55.6088 82.9907 51.2758 81.1935 46.7578 81.1914ZM103.2 98.2998L103.207 98.7227C103.334 103.086 105.124 107.241 108.22 110.33C111.413 113.517 115.735 115.309 120.243 115.318C124.763 115.31 129.097 113.511 132.294 110.312C135.491 107.112 137.292 102.775 137.3 98.249L137.295 97.8252C137.186 93.4523 135.401 89.2819 132.303 86.1826C129.104 82.9836 124.768 81.1877 120.247 81.1885C115.726 81.1893 111.39 82.9865 108.193 86.1865C106.61 87.7712 105.354 89.653 104.497 91.7236C103.64 93.7942 103.2 96.0137 103.2 98.2549V98.2998Z" fill="url(#paint0_linear_2_1967)" stroke="black" stroke-width="10"/>
<defs>
<linearGradient id="paint0_linear_2_1967" x1="10" y1="135.028" x2="157" y2="135.028" gradientUnits="userSpaceOnUse">
<stop stop-color="#A734BD"/>
<stop offset="1" stop-color="#FF006A"/>
</linearGradient>
</defs>
</svg>
