<svg width="44" height="54" viewBox="0 0 44 54" fill="none" xmlns="http://www.w3.org/2000/svg">
<path d="M38.2528 21.6H35.3438V13.5C35.3438 13.5 35.3438 0 21.75 0C8.15625 0 8.15625 13.5 8.15625 13.5V21.6H5.24719C3.85555 21.6 2.5209 22.149 1.53687 23.1263C0.552827 24.1035 0 25.429 0 26.811V48.816C0.00718623 50.1934 0.563184 51.5119 1.54645 52.4833C2.52971 53.4547 3.86024 54 5.24719 54H38.2528C39.6445 54 40.9791 53.451 41.9631 52.4737C42.9472 51.4965 43.5 50.171 43.5 48.789V26.811C43.5 25.429 42.9472 24.1035 41.9631 23.1263C40.9791 22.149 39.6445 21.6 38.2528 21.6ZM13.5938 14.85C13.5938 10.8 13.5938 5.4 21.75 5.4C29.9062 5.4 29.9062 10.8 29.9062 14.85V21.6H13.5938V14.85ZM21.75 43.2C20.6746 43.2 19.6233 42.8833 18.7291 42.2899C17.8349 41.6966 17.138 40.8532 16.7264 39.8665C16.3149 38.8798 16.2072 37.794 16.417 36.7465C16.6268 35.699 17.1447 34.7368 17.9051 33.9816C18.6656 33.2264 19.6344 32.7121 20.6892 32.5038C21.744 32.2954 22.8373 32.4023 23.8308 32.8111C24.8244 33.2198 25.6736 33.9119 26.2711 34.7999C26.8686 35.6879 27.1875 36.732 27.1875 37.8C27.1875 39.2322 26.6146 40.6057 25.5949 41.6184C24.5752 42.6311 23.1921 43.2 21.75 43.2Z" fill="white"/>
</svg>
